<svg xmlns="http://www.w3.org/2000/svg" xmlns:xlink="http://www.w3.org/1999/xlink" version="1.1" x="0px" y="0px" viewBox="0 0 100 125" style="enable-background:new 0 0 100 100;" xml:space="preserve">
	<g>
		<path d="M95.596,48.327c-0.065-0.267-0.17-0.526-0.343-0.751L80.333,28.11c-0.467-0.611-1.238-0.9-1.998-0.749   c-6.594,1.337-13.738,3.172-20.011,5.113l2.509-3.646c0.522-0.76,1.312-1.908,1.393-3.391c0.107-1.958-1.378-3.527-2.814-5.045   c-0.482-0.51-1.251-1.322-1.512-1.774c0.002-0.006,0.002-0.012,0.004-0.017c0.004-0.013,0.005-0.026,0.009-0.039   c0.045-0.157,0.067-0.317,0.073-0.477c0.001-0.028,0.004-0.055,0.004-0.083c-0.001-0.164-0.024-0.326-0.064-0.484   c-0.008-0.033-0.018-0.064-0.028-0.097c-0.05-0.161-0.115-0.317-0.204-0.462c-0.003-0.005-0.004-0.012-0.008-0.017   c-0.008-0.012-0.019-0.02-0.027-0.032c-0.089-0.137-0.196-0.263-0.319-0.377c-0.014-0.013-0.027-0.029-0.042-0.042   c-0.095-0.083-0.198-0.159-0.312-0.224c-0.03-0.017-0.062-0.026-0.093-0.042c-0.044-0.023-0.089-0.041-0.134-0.06   c-0.128-0.054-0.258-0.095-0.391-0.121c-0.033-0.007-0.065-0.017-0.098-0.022c-0.169-0.025-0.338-0.026-0.506-0.008   c-0.015,0.002-0.03-0.003-0.045-0.001c-5.143,0.669-24.43,4.835-25.248,5.012c-0.43,0.093-0.817,0.324-1.103,0.657   C28.58,22.604,10.002,44.28,5.052,50.772c-0.514,0.675-0.537,1.57-0.126,2.256c-0.22,0.368-0.326,0.808-0.273,1.267   c0.002,0.018,0.009,0.035,0.011,0.053c-0.04,0.314-0.015,0.641,0.105,0.958l3.523,9.368c0.197,0.522,0.602,0.94,1.119,1.153   c0.245,0.101,0.505,0.15,0.765,0.15c0.288,0,0.575-0.062,0.842-0.184c2.257-1.039,6.689-1.062,10.974-1.085   c4.182-0.021,8.456-0.055,11.934-0.92c-0.032,0.36,0.026,0.733,0.201,1.08c0.86,1.711,1.922,3.676,3.048,5.756   c2.339,4.325,4.991,9.227,5.985,12.254c0.007,0.022,0.023,0.039,0.031,0.061c0.065,0.176,0.146,0.345,0.258,0.498   c0.006,0.008,0.011,0.016,0.017,0.024c0.094,0.124,0.201,0.239,0.324,0.34c0.026,0.021,0.055,0.036,0.082,0.056   c0.027,0.02,0.054,0.038,0.081,0.056c0.152,0.103,0.314,0.187,0.485,0.244c0.02,0.007,0.039,0.01,0.059,0.016   c0.187,0.056,0.379,0.091,0.575,0.091l0.001,0h0h0c0.172,0,0.345-0.022,0.514-0.067c12.98-3.43,46.29-14.885,47.701-15.371   c0.766-0.264,1.299-0.959,1.354-1.767c0.008-0.119,0.816-11.916,1.79-16.668C96.597,49.575,96.243,48.772,95.596,48.327z    M90.049,47.406c-2.448,0.456-4.891,0.958-7.333,1.48c-1.046-2.221-3.624-5.732-5.742-8.107c0.853-1.567,1.383-3.532,1.855-5.303   c0.164-0.613,0.319-1.196,0.478-1.71c0.03-0.098,0.045-0.197,0.059-0.296L90.049,47.406z M47.674,58.715   c-0.576-2.396-1.521-4.685-2.769-6.744l0.932-1.355c0.222-0.011,0.446-0.05,0.663-0.139c7.386-3.018,18.987-6.221,26.7-7.856   c1.67,1.704,4.202,4.98,5.445,7.16C68.193,52.175,57.828,55.16,47.674,58.715z M75.734,32.035   c-0.114,0.165-0.212,0.343-0.274,0.545c-0.172,0.558-0.342,1.191-0.52,1.855c-0.351,1.315-0.772,2.875-1.296,4.008   c-0.076,0.007-0.151,0.004-0.226,0.019c-6.593,1.337-16.066,3.839-23.692,6.503l4.838-7.029   C60.703,35.8,68.401,33.663,75.734,32.035z M58.206,25.219c-0.02,0.353-0.408,0.917-0.69,1.329L37.377,55.805l-2.073-5.165   c-0.048-0.12-0.109-0.231-0.176-0.336c3.188-4.278,14.486-19.487,20.458-28.122c0.302,0.345,0.611,0.672,0.9,0.978   C57.093,23.802,58.109,24.875,58.206,25.219z M31.984,24.819c2.702-0.581,13.049-2.791,19.669-4.033   c-6.28,9.002-17.614,24.242-20.101,27.579c-3.205,0.504-15.152,2.37-22.097,3.311C15.107,44.563,29.298,27.958,31.984,24.819z    M21.971,60.683c-3.93,0.021-7.687,0.04-10.593,0.758l-2.134-5.674c6.607-0.875,18.475-2.724,22.437-3.346l2.368,5.899   c0.161,0.401,0.438,0.719,0.776,0.937C31.848,60.627,26.624,60.659,21.971,60.683z M37.724,63.061   c-0.109-0.217-0.257-0.401-0.425-0.558c0.065-0.037,0.14-0.062,0.204-0.1c0.249-0.148,0.463-0.35,0.627-0.588l4.22-6.132   c0.893,1.863,1.504,3.897,1.787,5.985c0.044,0.327,0.174,0.63,0.361,0.893c-0.2,2.825-0.445,6.11-0.691,9.416   c-0.056,0.743-0.111,1.485-0.166,2.223c-0.925-1.79-1.93-3.651-2.925-5.491C39.605,66.656,38.556,64.718,37.724,63.061z    M47.283,79.552c0.166-2.288,0.352-4.782,0.539-7.275c0.251-3.368,0.501-6.717,0.703-9.579c14.255-5.019,28.93-8.91,43.685-11.581   c-0.708,4.391-1.273,11.405-1.492,14.334C84.854,67.457,59.975,75.927,47.283,79.552z" />
	</g>
</svg>
